<svg height="512pt" viewBox="0 0 512 512" width="512pt" xmlns="http://www.w3.org/2000/svg"><path d="m25.601562 8.535156h349.863282c9.425781 0 17.070312 7.640625 17.070312 17.066406v460.796876c0 9.425781-7.644531 17.066406-17.070312 17.066406h-349.863282c-9.425781 0-17.066406-7.640625-17.066406-17.066406v-460.796876c0-9.425781 7.640625-17.066406 17.066406-17.066406zm0 0" fill="#00838f"/><path d="m25.601562 8.535156h315.730469c9.425781 0 17.066407 7.640625 17.066407 17.066406v460.796876c0 9.425781-7.640626 17.066406-17.066407 17.066406h-315.730469c-9.425781 0-17.066406-7.640625-17.066406-17.066406v-460.796876c0-9.425781 7.640625-17.066406 17.066406-17.066406zm0 0" fill="#00bcd4"/><path d="m8.535156 435.199219h494.929688v51.199219c0 9.425781-7.640625 17.066406-17.066406 17.066406h-460.796876c-9.425781 0-17.066406-7.640625-17.066406-17.066406zm0 0" fill="#4527a0"/><path d="m503.464844 25.601562v51.199219h-494.929688v-51.199219c.027344-9.414062 7.652344-17.039062 17.066406-17.066406h460.796876c9.414062.027344 17.039062 7.652344 17.066406 17.066406zm0 0" fill="#4527a0"/><path d="m8.535156 435.199219h460.796875v51.199219c0 9.425781-7.640625 17.066406-17.066406 17.066406h-426.664063c-9.425781 0-17.066406-7.640625-17.066406-17.066406zm0 0" fill="#673ab7"/><path d="m469.332031 25.601562v51.199219h-460.796875v-51.199219c-.289062-9.089843 6.804688-16.707031 15.886719-17.066406h429.023437c9.082032.359375 16.175782 7.976563 15.886719 17.066406zm0 0" fill="#673ab7"/><path d="m392.535156 315.734375h110.929688v119.464844h-110.929688zm0 0" fill="#c52828"/><path d="m392.535156 315.734375h85.332032v119.464844h-85.332032zm0 0" fill="#f44335"/><path d="m392.535156 196.265625h110.929688v119.46875h-110.929688zm0 0" fill="#f57c00"/><path d="m392.535156 196.265625h85.332032v119.46875h-85.332032zm0 0" fill="#ffb301"/><path d="m392.535156 76.800781h110.929688v119.464844h-110.929688zm0 0" fill="#2e7d32"/><path d="m392.535156 76.800781h85.332032v119.464844h-85.332032zm0 0" fill="#4caf50"/><path d="m51.199219 110.933594h179.199219c4.714843 0 8.535156 3.820312 8.535156 8.53125v17.070312c0 4.710938-3.820313 8.53125-8.535156 8.53125h-179.199219c-4.710938 0-8.53125-3.820312-8.53125-8.53125v-17.070312c0-4.710938 3.820312-8.53125 8.53125-8.53125zm0 0" fill="#ecf0f1"/><path d="m341.332031 247.464844h-51.199219c-9.425781 0-17.066406-7.640625-17.066406-17.066406v-102.398438c0-9.425781 7.640625-17.066406 17.066406-17.066406h51.199219c9.425781 0 17.066407 7.640625 17.066407 17.066406v102.398438c0 9.425781-7.640626 17.066406-17.066407 17.066406zm0 0" fill="#ffeb3a"/><path d="m68.265625 349.867188h273.066406c9.425781 0 17.066407 7.640624 17.066407 17.066406v17.066406c0 9.425781-7.640626 17.066406-17.066407 17.066406h-273.066406c-9.425781 0-17.066406-7.640625-17.066406-17.066406v-17.066406c0-9.425782 7.640625-17.066406 17.066406-17.066406zm0 0" fill="#ecf0f1"/><path d="m486.398438 0h-460.796876c-14.140624 0-25.601562 11.460938-25.601562 25.601562v460.796876c0 14.140624 11.460938 25.601562 25.601562 25.601562h460.796876c14.140624 0 25.601562-11.460938 25.601562-25.601562v-460.796876c0-14.140624-11.460938-25.601562-25.601562-25.601562zm-469.332032 426.667969v-341.335938h366.933594v341.335938zm477.867188-341.335938v102.402344h-93.867188v-102.402344zm-93.867188 119.46875h93.867188v102.398438h-93.867188zm0 119.464844h93.867188v102.402344h-93.867188zm-384-298.664063c0-4.714843 3.820313-8.535156 8.535156-8.535156h460.796876c4.714843 0 8.535156 3.820313 8.535156 8.535156v42.664063h-477.867188zm477.867188 460.796876c0 4.714843-3.820313 8.535156-8.535156 8.535156h-460.796876c-4.714843 0-8.535156-3.820313-8.535156-8.535156v-42.664063h477.867188zm0 0"/><path d="m51.199219 42.667969c0 4.710937-3.820313 8.53125-8.53125 8.53125-4.714844 0-8.535157-3.820313-8.535157-8.53125 0-4.714844 3.820313-8.535157 8.535157-8.535157 4.710937 0 8.53125 3.820313 8.53125 8.535157zm0 0"/><path d="m85.332031 42.667969c0 4.710937-3.820312 8.53125-8.53125 8.53125-4.714843 0-8.535156-3.820313-8.535156-8.53125 0-4.714844 3.820313-8.535157 8.535156-8.535157 4.710938 0 8.53125 3.820313 8.53125 8.535157zm0 0"/><path d="m119.464844 42.667969c0 4.710937-3.820313 8.53125-8.53125 8.53125-4.714844 0-8.535156-3.820313-8.535156-8.53125 0-4.714844 3.820312-8.535157 8.535156-8.535157 4.710937 0 8.53125 3.820313 8.53125 8.535157zm0 0"/><path d="m420.632812 142.566406 17.066407 17.066406c1.601562 1.601563 3.769531 2.5 6.035156 2.5h.605469c2.46875-.179687 4.742187-1.425781 6.21875-3.414062l25.601562-34.132812c1.828125-2.4375 2.21875-5.667969 1.019532-8.472657-1.195313-2.800781-3.800782-4.753906-6.824219-5.117187-3.027344-.367188-6.019531.910156-7.847657 3.351562l-19.695312 26.265625-10.113281-10.113281c-3.347657-3.234375-8.671875-3.1875-11.960938.105469-3.292969 3.289062-3.339843 8.613281-.105469 11.960937zm0 0"/><path d="m474.453125 232.105469c-1.808594-1.355469-4.085937-1.941407-6.328125-1.621094-2.238281.320313-4.261719 1.519531-5.617188 3.328125l-19.695312 26.265625-10.113281-10.109375c-3.347657-3.234375-8.671875-3.191406-11.960938.101562-3.292969 3.292969-3.339843 8.613282-.105469 11.960938l17.066407 17.070312c1.601562 1.597657 3.769531 2.496094 6.035156 2.5h.605469c2.46875-.183593 4.742187-1.429687 6.21875-3.414062l25.601562-34.132812c2.828125-3.773438 2.0625-9.121094-1.707031-11.949219zm0 0"/><path d="m474.453125 351.574219c-3.769531-2.828125-9.117187-2.066407-11.945313 1.707031l-19.695312 26.265625-10.113281-10.113281c-3.347657-3.234375-8.671875-3.1875-11.960938.105468-3.292969 3.289063-3.339843 8.613282-.105469 11.960938l17.066407 17.066406c1.601562 1.601563 3.769531 2.5 6.035156 2.5h.605469c2.46875-.179687 4.742187-1.425781 6.21875-3.414062l25.601562-34.132813c2.828125-3.769531 2.0625-9.117187-1.707031-11.945312zm0 0"/><path d="m230.398438 153.601562c9.425781 0 17.066406-7.640624 17.066406-17.066406v-17.070312c0-9.425782-7.640625-17.066406-17.066406-17.066406h-179.199219c-9.425781 0-17.066407 7.640624-17.066407 17.066406v17.070312c0 9.425782 7.640626 17.066406 17.066407 17.066406zm-179.199219-34.136718h179.199219v17.070312h-179.199219zm0 0"/><path d="m341.332031 102.398438h-51.199219c-14.136718 0-25.597656 11.464843-25.597656 25.601562v102.398438c0 14.140624 11.460938 25.601562 25.597656 25.601562h51.199219c14.140625 0 25.601563-11.460938 25.601563-25.601562v-102.398438c0-14.136719-11.460938-25.601562-25.601563-25.601562zm8.535157 128c0 4.714843-3.820313 8.535156-8.535157 8.535156h-51.199219c-4.710937 0-8.53125-3.820313-8.53125-8.535156v-102.398438c0-4.710938 3.820313-8.535156 8.53125-8.535156h51.199219c4.714844 0 8.535157 3.824218 8.535157 8.535156zm0 0"/><path d="m230.398438 170.667969h-179.199219c-4.710938 0-8.53125 3.820312-8.53125 8.53125 0 4.714843 3.820312 8.535156 8.53125 8.535156h179.199219c4.714843 0 8.535156-3.820313 8.535156-8.535156 0-4.710938-3.820313-8.53125-8.535156-8.53125zm0 0"/><path d="m230.398438 204.800781h-179.199219c-4.710938 0-8.53125 3.820313-8.53125 8.53125 0 4.714844 3.820312 8.535157 8.53125 8.535157h179.199219c4.714843 0 8.535156-3.820313 8.535156-8.535157 0-4.710937-3.820313-8.53125-8.535156-8.53125zm0 0"/><path d="m230.398438 238.933594h-179.199219c-4.710938 0-8.53125 3.820312-8.53125 8.53125 0 4.714844 3.820312 8.535156 8.53125 8.535156h179.199219c4.714843 0 8.535156-3.820312 8.535156-8.535156 0-4.710938-3.820313-8.53125-8.535156-8.53125zm0 0"/><path d="m358.398438 273.066406h-307.199219c-4.710938 0-8.53125 3.820313-8.53125 8.535156 0 4.710938 3.820312 8.53125 8.53125 8.53125h307.199219c4.714843 0 8.535156-3.820312 8.535156-8.53125 0-4.714843-3.820313-8.535156-8.535156-8.535156zm0 0"/><path d="m358.398438 307.199219h-307.199219c-4.710938 0-8.53125 3.820312-8.53125 8.535156 0 4.710937 3.820312 8.53125 8.53125 8.53125h307.199219c4.714843 0 8.535156-3.820313 8.535156-8.53125 0-4.714844-3.820313-8.535156-8.535156-8.535156zm0 0"/><path d="m341.332031 341.332031h-273.066406c-14.136719 0-25.597656 11.460938-25.597656 25.601563v17.066406c0 14.136719 11.460937 25.601562 25.597656 25.601562h273.066406c14.140625 0 25.601563-11.464843 25.601563-25.601562v-17.066406c0-14.140625-11.460938-25.601563-25.601563-25.601563zm8.535157 42.667969c0 4.710938-3.820313 8.535156-8.535157 8.535156h-273.066406c-4.710937 0-8.53125-3.824218-8.53125-8.535156v-17.066406c0-4.714844 3.820313-8.535156 8.53125-8.535156h273.066406c4.714844 0 8.535157 3.820312 8.535157 8.535156zm0 0"/></svg>